<svg 
          width="2708" 
          height="552" fill="none" 
          xmlns="http://www.w3.org/2000/svg">
          <path d="M 0 140.4512481689453 C 0 140.4512481689453 82.77450561523438 -6.9931464195251465 177.76805114746094 1.0821385383605957 C 256.9874801635742 7.81648588180542 242.99807739257812 112.1922960281372 321.9576721191406 120.77560424804688 C 413.5910186767578 130.7366132736206 418.95208740234375 -13.843726634979248 509.60174560546875 1.0821385383605957 C 583.0565795898438 13.17680025100708 562.7097091674805 108.06947803497314 636.0145874023438 120.77560424804688 C 727.6812591552734 136.6644287109375 734.0471267700195 -2.1664936542510986 827.6090087890625 1.0821385383605957 C 916.3220825195312 4.162411689758301 915.3946075439453 111.00621700286865 1003.40185546875 120.77560424804688 C 1109.4882431030273 132.5518970489502 1130.3131484985352 -10.21204137802124 1236.4755859375 1.0821385383605957 C 1325.1388092041016 10.514650821685791 1324.8751754760742 119.20462584495544 1414.2435302734375 120.77560424804688 C 1506.028205871582 122.38905847072601 1508.2735900878906 5.668076992034912 1599.9124755859375 1.0821385383605957 C 1687.1126022338867 -3.2816686630249023 1708.5715637207031 83.7282166481018 1795.457275390625 91.26214599609375 C 1903.0445175170898 100.59112167358398 1942.3945007324219 -5.700695514678955 2050.258056640625 1.0821385383605957 C 2142.1107025146484 6.858150959014893 2167.6857528686523 86.58899164199829 2259.62939453125 91.26214599609375 C 2364.0695266723633 96.57045030593872 2400.197052001953 -5.25168514251709 2504.55419921875 1.0821385383605957 C 2594.382499694824 6.534151554107666 2708 91.26214599609375 2708 91.26214599609375 L 2708 552 L 27.652807235717773 552 L 0 140.4512481689453 Z" fill="rgb(1.0000000591389835,154.00000602006912,237.0000010728836)"/>
        </svg>