<svg 
          width="2261" 
          height="184" fill="none" 
          xmlns="http://www.w3.org/2000/svg">
          <path d="M 0 46.817082883341186 C 0 46.817082883341186 69.11121198402364 -2.331048949937244 148.4245076586433 0.36071285792618596 C 214.56746980763106 2.6054953814126485 202.88725971636504 37.397433845942146 268.8132749817651 40.25853664638748 C 345.32103255680227 43.57887302507307 349.7971465891943 -4.61457579726794 425.4835886214442 0.36071285792618596 C 486.8134943532909 4.392266863238525 469.82520393800064 36.023161217418135 531.0299051787016 40.25853664638748 C 607.5654880710103 45.55481164961909 612.880589207622 -0.7221645543097084 690.998541210795 0.36071285792618596 C 765.0680636817046 1.387470602829634 764.2936856682329 37.002074220558 837.7738876732311 40.25853664638748 C 926.3489751447124 44.183967648518255 943.7363257794201 -3.404013873483752 1032.3749088256745 0.36071285792618596 C 1106.402809705115 3.504883565835067 1106.1827802066816 39.73487716908377 1180.799416484318 40.25853664638748 C 1257.4335235217295 40.79635475087462 1259.308187430484 1.889359071320454 1335.8205689277897 0.36071285792618596 C 1408.626879872239 -1.0938896235285778 1426.5437293716975 27.90940537446991 1499.0875273522975 30.420715206051227 C 1588.9157229228056 33.5303739486863 1621.7704206810301 -1.9002318545444687 1711.8293216630195 0.36071285792618596 C 1788.5201802688475 2.286050430220291 1809.8735791268268 28.86299706758013 1886.6404084609774 30.420715206051227 C 1973.8409768458616 32.19015004545094 2004.005111747202 -1.7505616866261637 2091.1363967906636 0.36071285792618596 C 2166.1370576765307 2.1780506209891626 2261 30.420715206051227 2261 30.420715206051227 L 2261 184 L 23.088256746900072 184 L 0 46.817082883341186 Z" fill="rgb(5.000000176951289,41.00000135600567,82.00000271201134)"/>
        </svg>