<svg 
          width="4083" 
          height="613" fill="none" 
          xmlns="http://www.w3.org/2000/svg">
          <path d="M 0 155.97212938852255 C 0 155.97212938852255 124.80366144660266 -7.7659402516931015 268.03063457330416 1.2017227277649567 C 387.47411730409453 8.680264504380183 366.38154861650526 124.59036384544858 485.43326039387307 134.1221900230192 C 623.593885859984 145.18396284983586 631.6770232302875 -15.373559585463301 768.3544857768052 1.2017227277649567 C 879.1063677330767 14.632932538941393 848.4282652272698 120.01194470802892 958.9540481400437 134.1221900230192 C 1097.1649216249161 151.76684533269838 1106.763133894171 -2.4059069119122354 1247.831509846827 1.2017227277649567 C 1381.589077404865 4.622388475731335 1380.1906760651905 123.27321465870685 1512.8840262582057 134.1221900230192 C 1672.836296114932 147.19984874207444 1704.2350367790239 -11.340546219812719 1864.3019693654267 1.2017227277649567 C 1997.984375066778 11.676595792700523 1997.587037409943 132.37760709048018 2132.3326039387307 134.1221900230192 C 2270.7213960810354 135.913942729816 2274.106735638508 6.294440819127383 2412.2757111597375 1.2017227277649567 C 2543.7521231837036 -3.6443170609946636 2576.1070530847596 92.9807907312503 2707.109409190372 101.34727402885545 C 2869.324589426721 111.7071697312212 2928.654855214793 -6.33066373280304 3091.2866520787743 1.2017227277649567 C 3229.7779283669634 7.616026705027384 3268.338710117131 96.1577021871012 3406.9671772428883 101.34727402885545 C 3564.4372881298773 107.24218466229037 3618.908832934023 -5.832034314683905 3776.253829321663 1.2017227277649567 C 3911.692882128826 7.256222992751939 4083 101.34727402885545 4083 101.34727402885545 L 4083 613 L 41.693654266958426 613 L 0 155.97212938852255 Z" fill="rgb(0,96.00000187754631,173.00000488758087)"/>
        </svg>