<svg 
          width="1936" 
          height="168" fill="none" 
          xmlns="http://www.w3.org/2000/svg">
          <path d="M 0 42.74603219783326 C 0 42.74603219783326 59.17704838614321 -2.128349041247049 127.08971553610503 0.32934652245434376 C 183.72517538592382 2.378930565637636 173.72389863373851 34.14548307672979 230.17359591539025 36.757794329310315 C 295.68399780184404 39.78940580550151 299.5167075615569 -4.2133083366359445 364.32385120350114 0.32934652245434376 C 416.83809158247294 4.010330614261263 402.2917270340422 32.89071241590352 454.6987600291758 36.757794329310315 C 520.2329875742928 41.593523680086996 524.7840869995384 -0.6593676365436469 591.673231218089 0.32934652245434376 C 655.0958740768599 1.2668209851922745 654.43280648107 33.784502549205136 717.3508388037928 36.757794329310315 C 793.1939919859193 40.341883505168845 808.0820551565492 -3.1080126670938606 883.9795769511306 0.32934652245434376 C 947.366580977047 3.2001110818494096 947.1781788943547 36.27967045872866 1011.0692924872357 36.757794329310315 C 1076.687882148637 37.248845642102914 1078.2930786667037 1.725066978162154 1143.8074398249453 0.32934652245434376 C 1206.1484473386356 -0.9987687867000059 1221.4898983032317 25.482500559298614 1283.606126914661 27.77543562291634 C 1360.5222642983424 30.614689257496188 1388.6543717109575 -1.7349943019753848 1465.7680525164114 0.32934652245434376 C 1531.4352361788983 2.087263436288092 1549.7192610303127 26.353171235616642 1615.4514952589352 27.77543562291634 C 1690.1177050745637 29.39100656323782 1715.9459957286967 -1.598338931267367 1790.55288110868 0.32934652245434376 C 1854.7728189569943 1.988654914816192 1936 27.77543562291634 1936 27.77543562291634 L 1936 168 L 19.76951130561634 168 L 0 42.74603219783326 Z" fill="rgb(64.57794517278671,138.79697620868683,223.32421571016312)"/>
        </svg>